<?xml version="1.0" encoding="UTF-8" standalone="no"?>
<!DOCTYPE svg PUBLIC "-//W3C//DTD SVG 1.1//EN"
 "http://www.w3.org/Graphics/SVG/1.1/DTD/svg11.dtd">
<!-- Generated by graphviz version 2.46.1 (20210213.1702)
 -->
<!-- Title: Array Pages: 1 -->
<svg width="147pt" height="303pt"
 viewBox="0.00 0.00 147.00 303.00" xmlns="http://www.w3.org/2000/svg" xmlns:xlink="http://www.w3.org/1999/xlink">
<g id="graph0" class="graph" transform="scale(1 1) rotate(0) translate(4 299)">
<title>Array</title>
<polygon fill="white" stroke="transparent" points="-4,4 -4,-299 143,-299 143,4 -4,4"/>
<!-- Node1 -->
<g id="node1" class="node">
<title>Node1</title>
<g id="a_node1"><a xlink:title=" ">
<polygon fill="#bfbfbf" stroke="black" points="0,-0.5 0,-178.5 134,-178.5 134,-0.5 0,-0.5"/>
<text text-anchor="middle" x="67" y="-166.5" font-family="Helvetica,sans-Serif" font-size="10.00">Array</text>
<polyline fill="none" stroke="black" points="0,-159.5 134,-159.5 "/>
<text text-anchor="middle" x="67" y="-147.5" font-family="Helvetica,sans-Serif" font-size="10.00"> </text>
<polyline fill="none" stroke="black" points="0,-140.5 134,-140.5 "/>
<text text-anchor="start" x="8" y="-128.5" font-family="Helvetica,sans-Serif" font-size="10.00">+ Array(int=10)</text>
<text text-anchor="start" x="8" y="-117.5" font-family="Helvetica,sans-Serif" font-size="10.00">+ Array(const Array &amp;)</text>
<text text-anchor="start" x="8" y="-106.5" font-family="Helvetica,sans-Serif" font-size="10.00">+ ~Array()</text>
<text text-anchor="start" x="8" y="-95.5" font-family="Helvetica,sans-Serif" font-size="10.00">+ int getSize() const</text>
<text text-anchor="start" x="8" y="-84.5" font-family="Helvetica,sans-Serif" font-size="10.00">+ const Array &amp; operator</text>
<text text-anchor="start" x="8" y="-73.5" font-family="Helvetica,sans-Serif" font-size="10.00">=(const Array &amp;)</text>
<text text-anchor="start" x="8" y="-62.5" font-family="Helvetica,sans-Serif" font-size="10.00">+ bool operator==(const</text>
<text text-anchor="start" x="8" y="-51.5" font-family="Helvetica,sans-Serif" font-size="10.00"> Array &amp;) const</text>
<text text-anchor="start" x="8" y="-40.5" font-family="Helvetica,sans-Serif" font-size="10.00">+ bool operator!=(const</text>
<text text-anchor="start" x="8" y="-29.5" font-family="Helvetica,sans-Serif" font-size="10.00"> Array &amp;) const</text>
<text text-anchor="start" x="8" y="-18.5" font-family="Helvetica,sans-Serif" font-size="10.00">+ int &amp; operator[](int)</text>
<text text-anchor="start" x="8" y="-7.5" font-family="Helvetica,sans-Serif" font-size="10.00">+ static int getArrayCount()</text>
</a>
</g>
</g>
<!-- Node2 -->
<g id="node2" class="node">
<title>Node2</title>
<g id="a_node2"><a xlink:title=" ">
<polygon fill="white" stroke="#bfbfbf" points="25,-237.5 25,-294.5 59,-294.5 59,-237.5 25,-237.5"/>
<text text-anchor="middle" x="42" y="-282.5" font-family="Helvetica,sans-Serif" font-size="10.00">int *</text>
<polyline fill="none" stroke="#bfbfbf" points="25,-275.5 59,-275.5 "/>
<text text-anchor="middle" x="42" y="-263.5" font-family="Helvetica,sans-Serif" font-size="10.00"> </text>
<polyline fill="none" stroke="#bfbfbf" points="25,-256.5 59,-256.5 "/>
<text text-anchor="middle" x="42" y="-244.5" font-family="Helvetica,sans-Serif" font-size="10.00"> </text>
</a>
</g>
</g>
<!-- Node2&#45;&gt;Node1 -->
<g id="edge1" class="edge">
<title>Node2&#45;&gt;Node1</title>
<path fill="none" stroke="#404040" d="M45.96,-237.35C47.83,-224.31 50.19,-207.87 52.64,-190.74"/>
<polygon fill="none" stroke="#404040" points="52.65,-190.69 49.54,-184.18 54.35,-178.81 57.46,-185.32 52.65,-190.69"/>
<text text-anchor="middle" x="60" y="-205.5" font-family="Helvetica,sans-Serif" font-size="10.00"> &#45;ptr</text>
</g>
<!-- Node3 -->
<g id="node3" class="node">
<title>Node3</title>
<g id="a_node3"><a xlink:title=" ">
<polygon fill="white" stroke="#bfbfbf" points="77.5,-237.5 77.5,-294.5 106.5,-294.5 106.5,-237.5 77.5,-237.5"/>
<text text-anchor="middle" x="92" y="-282.5" font-family="Helvetica,sans-Serif" font-size="10.00">int</text>
<polyline fill="none" stroke="#bfbfbf" points="77.5,-275.5 106.5,-275.5 "/>
<text text-anchor="middle" x="92" y="-263.5" font-family="Helvetica,sans-Serif" font-size="10.00"> </text>
<polyline fill="none" stroke="#bfbfbf" points="77.5,-256.5 106.5,-256.5 "/>
<text text-anchor="middle" x="92" y="-244.5" font-family="Helvetica,sans-Serif" font-size="10.00"> </text>
</a>
</g>
</g>
<!-- Node3&#45;&gt;Node1 -->
<g id="edge2" class="edge">
<title>Node3&#45;&gt;Node1</title>
<path fill="none" stroke="#404040" d="M88.04,-237.35C86.17,-224.31 83.81,-207.87 81.36,-190.74"/>
<polygon fill="none" stroke="#404040" points="81.35,-190.69 76.54,-185.32 79.65,-178.81 84.46,-184.18 81.35,-190.69"/>
<text text-anchor="middle" x="112" y="-211" font-family="Helvetica,sans-Serif" font-size="10.00"> &#45;arrayCount</text>
<text text-anchor="middle" x="112" y="-200" font-family="Helvetica,sans-Serif" font-size="10.00">&#45;size</text>
</g>
</g>
</svg>
